<?xml version="1.0" standalone="no"?>
<!DOCTYPE svg PUBLIC "-//W3C//DTD SVG 20010904//EN"
 "http://www.w3.org/TR/2001/REC-SVG-20010904/DTD/svg10.dtd">
<svg version="1.0" xmlns="http://www.w3.org/2000/svg"
 width="1280.000000pt" height="1118.000000pt" viewBox="0 0 1280.000000 1118.000000"
 preserveAspectRatio="xMidYMid meet">
<metadata>
Created by potrace 1.15, written by Peter Selinger 2001-2017
</metadata>
<g transform="translate(0.000000,1118.000000) scale(0.100000,-0.100000)"
fill="#000000" stroke="none">
<path d="M5604 11034 c-53 -82 -100 -151 -104 -154 -3 -3 -326 -502 -717
-1110 -391 -608 -893 -1388 -1117 -1735 l-406 -630 -48 -8 c-26 -4 -112 -22
-192 -40 -118 -26 -167 -32 -265 -32 -104 0 -126 3 -164 22 -25 12 -45 21 -46
20 -1 -1 -31 -40 -66 -87 l-66 -85 -12 -105 c-22 -192 -85 -455 -159 -670
l-19 -55 -194 -7 c-107 -3 -363 -11 -569 -17 -206 -6 -453 -14 -547 -17 l-173
-7 0 -152 c0 -133 3 -160 24 -221 35 -105 49 -199 44 -307 -3 -85 -8 -103 -38
-163 -67 -131 -163 -177 -408 -194 -263 -18 -299 -30 -339 -110 -22 -42 -23
-56 -23 -252 l0 -207 35 -7 35 -6 0 -89 0 -88 203 -66 c818 -268 1273 -418
1278 -424 4 -3 12 -85 18 -181 6 -96 29 -440 51 -765 51 -748 55 -841 35 -849
-10 -4 -15 -20 -15 -53 0 -43 -3 -50 -30 -65 -23 -13 -30 -24 -30 -48 0 -22
-11 -45 -35 -72 -97 -114 -93 -346 7 -376 18 -6 56 -14 83 -18 28 -4 61 -9 75
-11 14 -2 52 -8 85 -12 33 -5 82 -10 109 -10 45 -1 53 3 87 38 50 53 70 119
73 238 3 109 20 179 48 194 11 6 18 21 18 38 0 28 -2 29 -60 36 -33 4 -62 10
-65 15 -5 8 52 20 97 20 32 0 24 -89 78 855 45 775 47 808 64 802 6 -2 174
-58 373 -123 l362 -119 5 -60 c3 -33 9 -460 14 -950 7 -646 6 -892 -2 -897 -6
-4 -28 -8 -48 -8 -26 0 -49 -10 -80 -33 -35 -27 -44 -40 -46 -70 -2 -27 1 -39
12 -43 13 -5 16 -25 16 -110 l0 -104 -124 0 c-118 0 -126 -1 -153 -24 -45 -39
-22 -51 98 -49 56 1 119 5 140 8 32 6 39 4 39 -9 0 -12 -10 -16 -39 -16 -61 0
-121 -60 -73 -74 53 -15 86 -16 142 -6 48 9 70 8 91 0 l29 -12 -25 -20 c-35
-27 -32 -54 6 -62 45 -9 109 -7 145 3 26 7 51 0 173 -53 l142 -62 172 23 c95
12 178 22 185 23 6 0 12 9 12 19 0 11 4 23 10 26 6 4 10 61 10 140 0 109 3
134 15 139 20 7 20 76 0 102 -11 14 -14 50 -15 140 l0 122 356 778 c195 429
360 783 365 788 6 6 9 6 9 -1 0 -6 14 -16 30 -22 24 -8 30 -16 30 -39 0 -22
85 -1357 125 -1967 3 -44 7 -133 10 -197 4 -112 3 -118 -15 -118 -18 0 -20 -7
-20 -64 l0 -65 -40 -22 c-37 -21 -40 -26 -40 -67 0 -37 -6 -51 -36 -85 -75
-82 -115 -226 -96 -337 14 -74 38 -127 68 -147 24 -16 232 -55 246 -47 4 3 16
1 25 -4 25 -14 230 -34 263 -27 41 9 89 62 124 135 29 60 31 73 33 186 3 172
33 283 83 299 14 4 20 15 20 35 0 36 -6 40 -93 54 -96 16 -96 32 -2 41 43 4
78 12 80 18 12 35 21 203 11 209 -6 4 -9 24 -8 45 1 21 31 505 67 1075 36 571
65 1040 65 1043 0 3 11 5 25 5 19 0 28 8 36 27 45 121 129 212 250 272 99 50
184 76 325 99 l109 19 3 76 c3 70 5 77 25 82 12 2 198 20 412 40 215 19 405
38 423 41 l32 5 0 104 c0 95 2 105 21 115 11 7 27 27 35 45 7 18 30 46 49 63
36 29 68 40 235 82 47 11 101 29 120 38 l35 17 5 150 5 150 37 12 c128 42 427
88 763 118 310 27 2096 191 2413 221 l164 15 43 -25 c61 -36 127 -114 149
-176 11 -31 26 -55 37 -57 14 -4 19 -19 23 -66 8 -81 87 -1523 85 -1539 -6
-49 3 -149 14 -153 6 -2 35 -11 62 -19 l50 -16 -43 5 c-30 4 -57 -1 -87 -14
-38 -17 -45 -25 -51 -57 -4 -21 -18 -62 -32 -92 -41 -90 -42 -236 -2 -279 13
-15 38 -23 82 -28 35 -4 77 -9 93 -11 208 -30 203 -30 229 -5 30 28 55 96 62
171 12 131 27 202 46 213 10 7 18 22 18 34 0 19 -9 23 -72 33 -78 14 -75 24
11 33 29 4 55 8 57 10 2 2 33 376 69 833 35 456 67 848 70 870 4 29 11 43 24
47 11 3 22 18 26 36 4 17 28 55 54 83 l48 52 144 10 144 11 3 53 c3 52 3 52
36 52 19 0 47 3 64 6 30 6 31 9 34 63 l3 56 70 13 c115 21 197 41 211 53 12
10 14 124 12 672 l-3 661 -30 17 c-39 23 -195 54 -370 73 -507 57 -1580 102
-2035 86 -590 -20 -770 -23 -770 -11 0 7 22 11 58 11 31 0 176 5 322 11 263
11 266 11 398 50 278 81 523 196 772 360 484 319 874 682 1175 1094 139 190
186 312 165 426 -13 69 -40 115 -110 187 -71 74 -150 115 -261 137 -58 12
-2486 218 -4069 345 -296 24 -429 47 -572 96 -253 88 -424 218 -509 386 l-29
58 442 617 c243 340 450 629 460 643 10 15 15 34 12 47 -5 19 -15 22 -87 27
-45 3 -433 12 -862 21 -429 8 -873 18 -987 21 l-207 7 -97 -149z m3636 -4414
c-8 -5 -58 -10 -110 -10 -52 0 -347 -9 -655 -20 -308 -11 -704 -25 -880 -31
-176 -6 -336 -9 -355 -7 -19 1 177 11 435 21 440 17 681 26 1170 46 301 12
413 12 395 1z m-2092 -77 c-32 -2 -84 -2 -115 0 -32 2 -6 3 57 3 63 0 89 -1
58 -3z m-685 -20 c-7 -2 -19 -2 -25 0 -7 3 -2 5 12 5 14 0 19 -2 13 -5z m-110
-10 c-35 -2 -91 -2 -125 0 -35 2 -7 3 62 3 69 0 97 -1 63 -3z m-270 -10 c-23
-2 -64 -2 -90 0 -26 2 -7 3 42 3 50 0 71 -1 48 -3z m-265 -10 c-32 -2 -84 -2
-115 0 -32 2 -6 3 57 3 63 0 89 -1 58 -3z m-250 -10 c-21 -2 -57 -2 -80 0 -24
2 -7 4 37 4 44 0 63 -2 43 -4z m-310 -10 c-21 -2 -57 -2 -80 0 -24 2 -7 4 37
4 44 0 63 -2 43 -4z m-245 -10 c-18 -2 -48 -2 -65 0 -18 2 -4 4 32 4 36 0 50
-2 33 -4z m-350 -10 c-7 -2 -21 -2 -30 0 -10 3 -4 5 12 5 17 0 24 -2 18 -5z
m-175 -10 c-10 -2 -28 -2 -40 0 -13 2 -5 4 17 4 22 1 32 -1 23 -4z m-690
-2959 l22 -6 0 -357 0 -357 -60 -130 -60 -129 0 60 c0 113 22 900 26 913 4 13
35 16 72 6z m183 -60 c63 -20 115 -37 117 -39 3 -3 -236 -534 -245 -544 -1 -2
-3 136 -3 307 0 172 4 312 8 312 5 0 60 -16 123 -36z m515 -107 c35 -37 43
-50 36 -64 -6 -10 -155 -335 -332 -723 -178 -388 -331 -723 -342 -745 -19 -40
-19 -38 -15 465 l4 505 133 290 c73 160 137 298 142 309 9 17 22 18 170 14
l160 -4 44 -47z m7072 -528 c45 -6 82 -14 82 -19 0 -4 -24 -4 -52 0 -29 5 -96
14 -148 20 -52 7 -98 16 -103 19 -8 8 88 -1 221 -20z m-7756 -616 l-3 -498
-46 -102 c-26 -57 -49 -103 -53 -103 -3 0 -14 6 -24 13 -18 13 -18 32 -7 468
9 329 16 464 26 489 17 45 103 230 107 230 2 0 2 -224 0 -497z m-2082 -8 c39
-20 38 -25 -5 -25 -28 0 -35 4 -35 20 0 24 3 24 40 5z m217 -152 c32 -13 -4
-22 -65 -16 -75 7 -77 7 -67 23 7 11 97 6 132 -7z m1849 -580 c-6 -6 -46 20
-46 30 0 5 10 32 23 60 l22 52 3 -69 c2 -37 1 -70 -2 -73z m1074 -672 c11 -8
1 -11 -37 -11 -52 0 -53 0 -53 30 l0 30 38 -19 c20 -11 44 -25 52 -30z m258
-180 c1 -1 2 -8 2 -16 0 -12 -9 -14 -37 -10 -21 2 -64 7 -95 10 -58 6 -71 17
-43 33 12 6 103 -3 173 -17z"/>
</g>
</svg>
